<?xml version="1.0" encoding="utf-8"?>
<!-- Generator: Adobe Illustrator 21.0.2, SVG Export Plug-In . SVG Version: 6.00 Build 0)  -->
<svg version="1.1" xmlns="http://www.w3.org/2000/svg" xmlns:xlink="http://www.w3.org/1999/xlink" x="0px" y="0px"
	 viewBox="0 0 420 510" style="enable-background:new 0 0 420 510;" xml:space="preserve">
<style type="text/css">
	.st0{fill:#394051;}
</style>
<g id="Layer_2">
</g>
<g id="Layer_3">
</g>
<g id="Layer_1">
	<g>
		<path class="st0" d="M157.8,311V208.4c-12.6,3-24.9,7-36.7,12C128.5,252.5,140.8,282.9,157.8,311z"/>
		<path class="st0" d="M117.1,84.2c-16,4.3-31.8,9.7-47.1,16.2c-1.9,13.3-3,26.9-3.3,40.5c12.9-6.4,26.2-12,39.7-16.6
			c18.1-6.2,37-10.7,56.2-13.5l6.4-0.9v48.9l-4.7,0.8c-18.5,3.1-36.7,8.1-54.2,15c-14.1,5.5-27.8,12.3-40.8,20.1
			c1.9,15.2,4.8,30.5,8.7,45.5c15.4,59.5,46.3,114.5,89.4,158.9c11.5,11.9,23.9,23,37,33.2V72c-13.5,0.2-27,1.2-40.3,2.9
			C148.2,76.9,132.4,80.1,117.1,84.2z M169,347.7L158.8,333c-24.1-34.8-40.8-73.4-49.6-114.7l-0.9-4.4l4.1-1.9
			c15.9-7.1,32.7-12.6,49.9-16.1l6.7-1.4V347.7z"/>
		<path class="st0" d="M302.9,84.2c-15.3-4.1-31.1-7.3-47-9.3c-13.3-1.7-26.8-2.6-40.3-2.9v360.3c13.1-10.2,25.5-21.4,37-33.2
			c43.1-44.3,74-99.3,89.4-158.8c3.9-15.1,6.8-30.4,8.7-45.6c-10.8-6.5-22.1-12.3-33.8-17.2c-1.1,13.8-3.2,27.5-6.1,40.9
			c-8.9,41.3-25.6,79.9-49.6,114.7L251,347.8V109.9l6.4,0.9c19.2,2.8,38.1,7.4,56.2,13.5c13.5,4.6,26.8,10.1,39.7,16.5
			c-0.3-13.6-1.5-27.2-3.3-40.5C334.7,93.9,318.8,88.5,302.9,84.2z"/>
		<path class="st0" d="M404.8,52.9C346.6,22.3,280.3,5,210,5S73.4,22.3,15.2,52.9C8.6,82.5,5.1,113.2,5.1,144.7
			C5.1,297.9,87.3,431.9,210,505c122.7-73.1,204.9-207.1,204.9-360.3C414.9,113.2,411.4,82.5,404.8,52.9z M364.6,159.5l-8.2-4.4
			c-14.9-8-30.5-14.8-46.4-20.1c-15.5-5.3-31.5-9.3-47.8-12.1v188c17.8-29.4,30.5-61.2,37.7-95c3.3-15.3,5.5-31.1,6.4-46.9l0.4-7.7
			l7.2,2.8c15.8,6.2,31.2,13.9,45.7,22.9l3,1.9l-0.4,3.5c-1.9,16.9-5,33.9-9.4,50.7c-15.9,61.4-47.8,118.1-92.2,163.8
			c-13.8,14.3-28.9,27.5-45,39.4l-5.6,4.2l-5.6-4.2c-16.1-11.9-31.2-25.2-45-39.5C115,361.1,83.1,304.4,67.2,243.1
			c-4.3-16.7-7.5-33.7-9.4-50.6l-0.4-3.5l3-1.9c14.5-9,29.8-16.7,45.7-22.9c16.7-6.5,34.1-11.5,51.7-14.8v-26.5
			c-16.3,2.8-32.4,6.8-47.8,12.1c-15.9,5.4-31.5,12.1-46.4,20.1l-8.2,4.4v-9.3c0-18.3,1.3-36.6,4-54.5l0.5-3.1l2.8-1.2
			c16.7-7.3,34.1-13.4,51.5-18c15.8-4.3,32.1-7.5,48.5-9.6h0c13.8-1.7,27.7-2.7,41.7-2.9l11.2,0c13.9,0.2,27.9,1.2,41.7,2.9
			c16.4,2.1,32.7,5.3,48.5,9.6c17.4,4.6,34.8,10.7,51.5,18l2.8,1.2l0.5,3.1c2.7,17.9,4,36.2,4,54.5V159.5z"/>
	</g>
</g>
</svg>
