<?xml version="1.0" encoding="utf-8"?>
<!-- Generator: Adobe Illustrator 21.0.2, SVG Export Plug-In . SVG Version: 6.00 Build 0)  -->
<svg version="1.1" xmlns="http://www.w3.org/2000/svg" xmlns:xlink="http://www.w3.org/1999/xlink" x="0px" y="0px"
	 viewBox="0 0 310 510" style="enable-background:new 0 0 310 510;" xml:space="preserve">
<g id="Layer_2">
</g>
<g id="Layer_3">
</g>
<g id="Layer_1">
	<g>
		<path d="M116.8,229.2V154c-9.2,2.2-18.2,5.1-26.9,8.8C95.3,186.4,104.3,208.6,116.8,229.2z"/>
		<path d="M87,63c-11.7,3.1-23.3,7.1-34.5,11.9c-1.4,9.8-2.2,19.7-2.4,29.7c9.5-4.7,19.2-8.8,29.1-12.1c13.3-4.5,27.1-7.9,41.2-9.9
			l4.7-0.7v35.8l-3.4,0.6c-13.5,2.3-26.9,6-39.7,11c-10.3,4.1-20.4,9-29.9,14.7c1.4,11.2,3.5,22.4,6.4,33.4
			c11.3,43.6,33.9,83.9,65.5,116.4c8.4,8.7,17.5,16.9,27.1,24.4v-264c-9.9,0.2-19.8,0.9-29.5,2.1C109.7,57.7,98.2,60,87,63z
			 M125,256.1l-7.5-10.8c-17.6-25.5-29.9-53.8-36.4-84l-0.7-3.2l3-1.4c11.7-5.2,24-9.2,36.6-11.8l4.9-1V256.1z"/>
		<path d="M223.1,63c-11.2-3-22.8-5.3-34.5-6.8c-9.8-1.2-19.7-1.9-29.5-2.1v264c9.6-7.5,18.7-15.7,27.1-24.4
			c31.6-32.5,54.2-72.7,65.5-116.4c2.9-11,5-22.2,6.4-33.4c-7.9-4.8-16.2-9-24.7-12.6c-0.8,10.1-2.3,20.2-4.5,29.9
			c-6.5,30.3-18.7,58.6-36.4,84.1l-7.5,10.8V81.9l4.7,0.7c14.1,2.1,27.9,5.4,41.2,9.9c9.9,3.3,19.7,7.4,29.1,12.1
			c-0.3-10-1.1-19.9-2.4-29.7C246.3,70.2,234.7,66.2,223.1,63z"/>
		<path d="M297.7,40.1C255.1,17.7,206.5,5,155,5S54.9,17.7,12.3,40.1c-4.9,21.6-7.4,44.1-7.4,67.2c0,112.2,60.2,210.4,150.1,264
			c89.9-53.6,150.1-151.7,150.1-264C305.1,84.3,302.6,61.8,297.7,40.1z M268.3,118.2l-6-3.2c-10.9-5.9-22.4-10.8-34-14.7
			c-11.3-3.9-23.1-6.8-35-8.8v137.8c13-21.5,22.3-44.9,27.6-69.6c2.5-11.2,4-22.8,4.7-34.4l0.3-5.6l5.3,2.1
			c11.6,4.6,22.9,10.2,33.5,16.8l2.2,1.4l-0.3,2.6c-1.4,12.4-3.7,24.9-6.9,37.1c-11.7,45-35,86.5-67.6,120
			c-10.1,10.5-21.2,20.2-33,28.9l-4.1,3l-4.1-3c-11.8-8.7-22.9-18.4-33-28.9c-32.6-33.6-55.9-75.1-67.6-120
			c-3.2-12.2-5.5-24.7-6.9-37.1l-0.3-2.6l2.2-1.4c10.6-6.6,21.9-12.2,33.5-16.8c12.3-4.8,25-8.4,37.9-10.8V91.4c-12,2-23.7,5-35,8.8
			c-11.6,3.9-23.1,8.9-34,14.7l-6,3.2v-6.8c0-13.4,1-26.8,2.9-39.9l0.3-2.2l2.1-0.9c12.3-5.3,25-9.8,37.8-13.2
			c11.5-3.1,23.5-5.5,35.5-7h0c10.1-1.3,20.3-2,30.5-2.1l8.2,0c10.2,0.2,20.4,0.8,30.5,2.1c12,1.5,24,3.9,35.6,7
			c12.8,3.4,25.5,7.8,37.7,13.2l2.1,0.9l0.3,2.2c2,13.1,2.9,26.5,2.9,39.9V118.2z"/>
	</g>
	<path d="M50.1,453.7l-4.5-13.9h-16l-5.1,13.9H13.1l18.2-47.3H46l15.9,47.3H50.1z M40.4,422.4l-2.2-8.9l-2.6,8.9l-2.9,9.2h10.3
		L40.4,422.4z"/>
	<path d="M123.2,454.6c-9.2-0.5-14.2-5.3-19.2-11l-5.4-6.2c-0.8,0.1-1.7,0.1-2.5,0.1h-3.5v16.3H81.2v-47.3h18.4
		c10.6,0,18.3,4.9,18.3,15.4c0,5.3-2.5,9.9-7.6,12.8l4.8,5.2c2.6,2.8,5.5,4.7,10.7,6L123.2,454.6z M98.1,415.4h-5.5v14h3.9
		c6.8,0,9.6-2.8,9.6-7.3C106.2,417.4,104.2,415.4,98.1,415.4z"/>
	<path d="M144.9,453.7v-47.3h31v8.9h-19.7v10.5h18.2v8.3h-18.2v10.7h21.2v8.9H144.9z"/>
	<path d="M227.4,407.2l15.4,45.7h-11.4l-4.3-13.4h-15.5l-5,13.4h-11l17.6-45.7H227.4 M214.5,431.5h10l-2.5-8.9l-1.8-7.4l-0.6,0
		l-2.2,7.4L214.5,431.5 M228.8,405.2h-1.4h-14.2h-1.4l-0.5,1.3l-17.6,45.7l-1,2.7h2.9h11h1.4l0.5-1.3l4.5-12.1h12.6l3.9,12.1
		l0.4,1.4h1.5h11.4h2.8l-0.9-2.6l-15.4-45.7L228.8,405.2L228.8,405.2z M217.2,429.5l2-6.3l0.4-1.5l0.3,1.4l1.8,6.4H217.2
		L217.2,429.5z"/>
	<path d="M275.4,454.5c-7.8,0-12.3-1.4-15.9-3.3l3.2-8.2c4.2,1.5,7.3,2.1,12.5,2.1c5.7,0,8.3-1.7,8.3-4.6c0-7.7-22.5-5.6-22.5-21.7
		c0-9.1,8.6-12.8,17-12.8c7.5,0,11.1,1.6,14.8,3.2l-3.3,7.9c-3.5-1-6.4-1.9-11.2-1.9c-4.8,0-6.2,1.5-6.2,3.5
		c0,6.3,22.9,6.3,22.9,21.3C295.1,450.5,285.2,454.5,275.4,454.5z"/>
	<path d="M84.2,505c-9.9,0-15.1-4.7-15.1-13.3c0-9.1,5.2-13.6,15-13.6c4,0,6.4,0.6,8.9,1.7l-2,5.3c-2.9-0.8-3.9-0.9-6.8-1
		c-4.4,0-7.5,2.2-7.5,7.1c0,4.9,3.2,7.5,8.2,7.5c2.5,0,4-0.2,6.5-0.8l1.6,5.5C89.9,504.6,87.6,505,84.2,505z"/>
	<path d="M128.9,505c-9.5,0-14.3-5.3-14.3-13.6c0-8.9,5.8-13.5,15-13.5c9.9,0,14.2,5.4,14.2,13.5C143.9,500.2,138.6,505,128.9,505z
		 M129.3,483.8c-5.2,0-7.2,3.1-7.2,7.6c0,4.4,2,7.8,6.9,7.8c5.3,0,7.3-3.2,7.3-7.7C136.3,486.9,134.2,483.8,129.3,483.8z"/>
	<path d="M179.1,504.6h-10.2v-26.3h10c9.2,0,15.9,4,15.9,13.1C194.8,500.5,188.7,504.6,179.1,504.6z M178.8,484.1h-2.5v14.6h3.2
		c5.7,0,7.8-2.4,7.8-7C187.3,486.6,184.7,484.1,178.8,484.1z"/>
	<path d="M219.8,504.6v-26.3h19.8v5.8h-12.3v4.5h11.5v5.5h-11.5v4.6h13.2v5.8H219.8z"/>
</g>
</svg>
