<?xml version="1.0" encoding="utf-8"?>
<!-- Generator: Adobe Illustrator 21.0.2, SVG Export Plug-In . SVG Version: 6.00 Build 0)  -->
<svg version="1.1" xmlns="http://www.w3.org/2000/svg" xmlns:xlink="http://www.w3.org/1999/xlink" x="0px" y="0px"
	 viewBox="0 0 420 510" style="enable-background:new 0 0 420 510;" xml:space="preserve">
<style type="text/css">
	.st0{fill:#222831;}
</style>
<g id="Layer_2">
</g>
<g id="Layer_3">
</g>
<g id="Layer_1">
	<g>
		<g>
			<path class="st0" d="M114.7,213.4l-3.4,1.5l0.8,3.6c8.7,40.4,25,78.1,48.5,112.1l8.3,12V196.6l-5.5,1.1
				C146.6,201.1,130.2,206.4,114.7,213.4z M159.8,312.7c-17.7-28.6-30.5-59.6-38-92.5c12.2-5.2,24.9-9.4,38-12.4V312.7z"/>
			<path class="st0" d="M308.3,136.1c15.6,5.3,30.9,11.9,45.6,19.8l6.7,3.6v-7.6c0-17.9-1.3-35.8-3.9-53.3l-0.4-2.5l-2.3-1
				c-16.4-7.1-33.3-13.1-50.4-17.6c-15.4-4.2-31.4-7.3-47.4-9.4c-13.8-1.7-27.8-2.7-41.7-2.8l-9.1,0c-13.9,0.2-27.9,1.1-41.7,2.8
				l0,0c-16.1,2.1-32,5.2-47.4,9.4C99.3,82.1,82.3,88,66,95.1l-2.3,1l-0.4,2.5c-2.6,17.5-3.9,35.4-3.9,53.3v7.6l6.7-3.6
				c14.7-7.9,30-14.5,45.6-19.8c15.5-5.3,31.7-9.3,48.1-12v27.8c-17.5,3.2-34.7,8.1-51.3,14.6C93,172.5,78,180,63.9,188.8l-2.5,1.5
				l0.3,2.9c1.8,16.5,4.9,33.2,9.2,49.5c15.5,60,46.7,115.4,90.2,160.2c13.6,14.1,28.5,27.1,44.4,38.9l4.6,3.4l4.6-3.4
				c15.8-11.7,30.8-24.8,44.4-38.8c43.4-44.7,74.6-100.1,90.2-160.2c4.2-16.4,7.3-33,9.2-49.5l0.3-2.9l-2.5-1.5
				c-14.1-8.8-29.2-16.3-44.6-22.4l-5.9-2.3l-0.4,6.3c-0.9,15.6-3,31.1-6.3,46.1c-7.4,34.3-20.4,66.6-38.8,96.2V124.1
				C276.6,126.8,292.8,130.8,308.3,136.1z M167.6,396.5c-42.4-43.7-72.8-97.6-87.9-156.1c-3.9-15-6.8-30.2-8.6-45.3
				c12.9-7.8,26.6-14.6,40.7-20.1c17.2-6.7,35.1-11.7,53.3-14.7l3.8-0.6v-46.1l-5.2,0.8c-18.8,2.8-37.2,7.2-54.9,13.2
				c-13.7,4.6-27.2,10.3-40.2,16.9c0.3-14.1,1.4-28.1,3.4-41.9c15.2-6.5,30.9-11.9,46.8-16.2c15-4.1,30.6-7.2,46.2-9.2
				c13.4-1.7,27-2.6,40.5-2.8v356C192,420,179.3,408.7,167.6,396.5z M259.4,330.6c23.5-34,39.8-71.7,48.5-112.1
				c2.9-13.4,5-27.3,6.1-41.2c12,5,23.7,11,34.9,17.8c-1.8,15.1-4.7,30.4-8.6,45.4C325.1,299,294.7,353,252.4,396.5
				c-11.7,12.1-24.4,23.5-37.8,33.8v-356c13.5,0.2,27.1,1.1,40.5,2.8c15.6,2,31.2,5.1,46.2,9.2c15.8,4.2,31.5,9.6,46.8,16.2
				c1.9,13.8,3.1,27.8,3.4,41.9c-13-6.6-26.5-12.2-40.2-16.9c-17.7-6-36.2-10.5-54.9-13.2l-5.2-0.8v229.2L259.4,330.6z"/>
		</g>
		<g>
			<path class="st0" d="M210,505l-2.3-1.4C146.9,467.4,96,416,60.5,354.8c-36.6-63-55.9-135-55.9-208.3c0-30.8,3.4-61.4,10-90.9
				l0.5-2.1l1.9-1C76,21.4,142.8,5,210,5s134,16.4,193.1,47.5l1.9,1l0.5,2.1c6.6,29.6,10,60.2,10,90.9c0,73.3-19.3,145.3-55.9,208.3
				C324,416,273.1,467.4,212.3,503.6L210,505z M23,59.6c-6.2,28.3-9.3,57.5-9.3,86.9c0,71.7,18.9,142.1,54.7,203.7
				c34.3,59,83.2,108.8,141.6,144.1c58.4-35.3,107.3-85.1,141.6-144.1c35.8-61.6,54.7-132.1,54.7-203.7c0-29.4-3.1-58.6-9.3-86.9
				C339.6,29.9,275,14.1,210,14.1C145,14.1,80.3,29.9,23,59.6z"/>
		</g>
	</g>
</g>
</svg>
