<?xml version="1.0" encoding="utf-8"?>
<!-- Generator: Adobe Illustrator 21.0.2, SVG Export Plug-In . SVG Version: 6.00 Build 0)  -->
<svg version="1.1" xmlns="http://www.w3.org/2000/svg" xmlns:xlink="http://www.w3.org/1999/xlink" x="0px" y="0px"
	 viewBox="0 0 310 510" style="enable-background:new 0 0 310 510;" xml:space="preserve">
<g id="Layer_2">
</g>
<g id="Layer_3">
</g>
<g id="Layer_1">
	<g>
		<g>
			<path d="M85.2,157.7l-2.5,1.1l0.6,2.6c6.4,29.6,18.3,57.2,35.5,82.1l6.1,8.8v-107l-4,0.8C108.5,148.7,96.5,152.6,85.2,157.7z
				 M118.2,230.5c-13-20.9-22.3-43.7-27.8-67.8c8.9-3.8,18.3-6.9,27.8-9.1V230.5z"/>
			<path d="M227,101.1c11.4,3.9,22.7,8.7,33.4,14.5l4.9,2.6v-5.6c0-13.1-1-26.2-2.9-39l-0.3-1.8l-1.7-0.7
				c-12-5.2-24.4-9.6-36.9-12.9c-11.3-3.1-23-5.4-34.8-6.9c-10.1-1.3-20.3-2-30.5-2.1l-6.7,0c-10.2,0.1-20.5,0.8-30.5,2.1l0,0
				c-11.8,1.5-23.5,3.8-34.7,6.9C73.9,61.5,61.5,65.8,49.5,71l-1.7,0.7l-0.3,1.8c-1.9,12.8-2.9,25.9-2.9,39v5.6l4.9-2.6
				c10.8-5.8,22-10.6,33.4-14.5c11.4-3.9,23.2-6.8,35.2-8.8v20.4c-12.8,2.3-25.4,5.9-37.6,10.7c-11.3,4.4-22.3,10-32.7,16.4
				l-1.8,1.1l0.2,2.1c1.4,12.1,3.6,24.3,6.7,36.3c11.4,44,34.2,84.6,66.1,117.4c10,10.3,20.9,19.9,32.5,28.5l3.3,2.5l3.3-2.5
				c11.6-8.6,22.5-18.1,32.5-28.5c31.8-32.7,54.7-73.3,66.1-117.3c3.1-12,5.4-24.2,6.7-36.3l0.2-2.1l-1.8-1.1
				c-10.4-6.4-21.4-11.9-32.7-16.4l-4.3-1.7l-0.3,4.6c-0.7,11.4-2.2,22.8-4.6,33.8c-5.4,25.1-14.9,48.8-28.4,70.5V92.3
				C203.8,94.2,215.6,97.2,227,101.1z M124,291.9c-31-32-53.3-71.5-64.4-114.4c-2.8-11-5-22.1-6.3-33.2c9.5-5.7,19.5-10.7,29.8-14.7
				c12.6-4.9,25.7-8.6,39-10.8l2.8-0.5V84.5l-3.8,0.6c-13.7,2-27.3,5.3-40.2,9.7c-10,3.4-19.9,7.5-29.5,12.3
				c0.2-10.3,1-20.6,2.5-30.7c11.2-4.8,22.7-8.7,34.3-11.8c11-3,22.4-5.2,33.9-6.7c9.8-1.2,19.8-1.9,29.7-2.1v260.8
				C141.8,309.1,132.5,300.8,124,291.9z M191.2,243.6c17.2-24.9,29.2-52.6,35.5-82.2c2.2-9.8,3.6-20,4.4-30.2
				c8.8,3.7,17.4,8.1,25.6,13c-1.3,11.1-3.5,22.3-6.3,33.3c-11.1,42.9-33.4,82.4-64.4,114.4c-8.6,8.9-17.9,17.2-27.7,24.8V55.8
				c9.9,0.1,19.9,0.8,29.7,2.1c11.5,1.5,22.8,3.7,33.9,6.7c11.6,3.1,23.1,7.1,34.3,11.8c1.4,10.1,2.3,20.4,2.5,30.7
				c-9.6-4.8-19.4-9-29.4-12.3c-13-4.4-26.5-7.7-40.2-9.7l-3.8-0.6v167.9L191.2,243.6z"/>
		</g>
		<g>
			<path d="M155,371.3l-1.7-1c-44.5-26.5-81.8-64.2-107.8-109c-26.8-46.2-41-98.9-41-152.6c0-22.5,2.5-45,7.3-66.6l0.3-1.5l1.4-0.7
				C56.8,17,105.7,5,155,5s98.2,12,141.5,34.8l1.4,0.7l0.3,1.5c4.9,21.7,7.3,44.1,7.3,66.6c0,53.7-14.2,106.5-41,152.6
				c-26,44.8-63.3,82.5-107.8,109L155,371.3z M18,45c-4.5,20.7-6.8,42.1-6.8,63.7c0,52.5,13.9,104.1,40.1,149.3
				c25.1,43.2,61,79.7,103.7,105.6c42.8-25.9,78.6-62.3,103.7-105.6c26.2-45.1,40.1-96.8,40.1-149.3c0-21.5-2.3-42.9-6.8-63.7
				c-42-21.8-89.3-33.3-137-33.3C107.3,11.7,60,23.2,18,45z"/>
		</g>
	</g>
	<path d="M50.1,453.7l-4.5-13.9h-16l-5.1,13.9H13.1l18.2-47.3H46l15.9,47.3H50.1z M40.4,422.4l-2.2-8.9l-2.6,8.9l-2.9,9.2h10.3
		L40.4,422.4z"/>
	<path d="M123.2,454.6c-9.2-0.5-14.2-5.3-19.2-11l-5.4-6.2c-0.8,0.1-1.7,0.1-2.5,0.1h-3.5v16.3H81.2v-47.3h18.4
		c10.6,0,18.3,4.9,18.3,15.4c0,5.3-2.5,9.9-7.6,12.8l4.8,5.2c2.6,2.8,5.5,4.7,10.7,6L123.2,454.6z M98.1,415.4h-5.5v14h3.9
		c6.8,0,9.6-2.8,9.6-7.3C106.2,417.4,104.2,415.4,98.1,415.4z"/>
	<path d="M144.9,453.7v-47.3h31v8.9h-19.7v10.5h18.2v8.3h-18.2v10.7h21.2v8.9H144.9z"/>
	<path d="M227.4,407.2l15.4,45.7h-11.4l-4.3-13.4h-15.5l-5,13.4h-11l17.6-45.7H227.4 M214.5,431.5h10l-2.5-8.9l-1.8-7.4l-0.6,0
		l-2.2,7.4L214.5,431.5 M228.8,405.2h-1.4h-14.2h-1.4l-0.5,1.3l-17.6,45.7l-1,2.7h2.9h11h1.4l0.5-1.3l4.5-12.1h12.6l3.9,12.1
		l0.4,1.4h1.5h11.4h2.8l-0.9-2.6l-15.4-45.7L228.8,405.2L228.8,405.2z M217.2,429.5l2-6.3l0.4-1.5l0.3,1.4l1.8,6.4H217.2
		L217.2,429.5z"/>
	<path d="M275.4,454.5c-7.8,0-12.3-1.4-15.9-3.3l3.2-8.2c4.2,1.5,7.3,2.1,12.5,2.1c5.7,0,8.3-1.7,8.3-4.6c0-7.7-22.5-5.6-22.5-21.7
		c0-9.1,8.6-12.8,17-12.8c7.5,0,11.1,1.6,14.8,3.2l-3.3,7.9c-3.5-1-6.4-1.9-11.2-1.9c-4.8,0-6.2,1.5-6.2,3.5
		c0,6.3,22.9,6.3,22.9,21.3C295.1,450.5,285.2,454.5,275.4,454.5z"/>
	<path d="M84.2,505c-9.9,0-15.1-4.7-15.1-13.3c0-9.1,5.2-13.6,15-13.6c4,0,6.4,0.6,8.9,1.7l-2,5.3c-2.9-0.8-3.9-0.9-6.8-1
		c-4.4,0-7.5,2.2-7.5,7.1c0,4.9,3.2,7.5,8.2,7.5c2.5,0,4-0.2,6.5-0.8l1.6,5.5C89.9,504.6,87.6,505,84.2,505z"/>
	<path d="M128.9,505c-9.5,0-14.3-5.3-14.3-13.6c0-8.9,5.8-13.5,15-13.5c9.9,0,14.2,5.4,14.2,13.5C143.9,500.2,138.6,505,128.9,505z
		 M129.3,483.8c-5.2,0-7.2,3.1-7.2,7.6c0,4.4,2,7.8,6.9,7.8c5.3,0,7.3-3.2,7.3-7.7C136.3,486.9,134.2,483.8,129.3,483.8z"/>
	<path d="M179.1,504.6h-10.2v-26.3h10c9.2,0,15.9,4,15.9,13.1C194.8,500.5,188.7,504.6,179.1,504.6z M178.8,484.1h-2.5v14.6h3.2
		c5.7,0,7.8-2.4,7.8-7C187.3,486.6,184.7,484.1,178.8,484.1z"/>
	<path d="M219.8,504.6v-26.3h19.8v5.8h-12.3v4.5h11.5v5.5h-11.5v4.6h13.2v5.8H219.8z"/>
</g>
</svg>
